<svg xmlns="http://www.w3.org/2000/svg" viewBox="0 0 1200 760" role="img" aria-labelledby="title desc">
  <title id="title">Demo - Valle di Brumafonda</title>
  <desc id="desc">Mappa dimostrativa della valle con ponte, santuario, villaggio e sentieri.</desc>
  <rect width="1200" height="760" fill="#e7e1d1"/>
  <path d="M0 520 C170 455 270 585 430 520 C560 465 690 510 820 450 C980 375 1070 435 1200 385 L1200 760 L0 760 Z" fill="#9ab184"/>
  <path d="M0 0 L1200 0 L1200 260 C1030 235 880 300 720 260 C560 220 430 180 270 240 C150 285 70 245 0 270 Z" fill="#b9c3a2"/>
  <path d="M165 0 C255 120 290 235 252 362 C220 470 275 575 396 760" fill="none" stroke="#6d9ab0" stroke-width="34" stroke-linecap="round"/>
  <path d="M160 0 C250 120 285 235 247 362 C215 470 270 575 391 760" fill="none" stroke="#c9e3ec" stroke-width="20" stroke-linecap="round"/>
  <path d="M95 425 C245 370 390 350 560 392 C715 430 870 388 1070 310" fill="none" stroke="#805f3f" stroke-width="12" stroke-linecap="round" stroke-dasharray="24 18"/>
  <path d="M552 390 C610 330 670 300 735 260" fill="none" stroke="#805f3f" stroke-width="9" stroke-linecap="round" stroke-dasharray="18 16"/>
  <g fill="#7a6852" stroke="#463a2f" stroke-width="4">
    <polygon points="205,360 260,338 316,360 300,395 220,395"/>
    <rect x="215" y="394" width="80" height="20"/>
  </g>
  <g fill="#d8c188" stroke="#5f4e34" stroke-width="4">
    <circle cx="552" cy="392" r="38"/>
    <rect x="515" y="385" width="74" height="52" rx="5"/>
    <path d="M515 385 L552 344 L589 385 Z"/>
  </g>
  <g fill="#b45f4d" stroke="#5f332b" stroke-width="4">
    <rect x="715" y="223" width="82" height="64" rx="7"/>
    <path d="M705 225 L756 182 L807 225 Z"/>
    <circle cx="756" cy="256" r="11" fill="#eadfb7"/>
  </g>
  <g fill="#617c5c">
    <circle cx="915" cy="315" r="44"/>
    <circle cx="962" cy="295" r="35"/>
    <circle cx="986" cy="342" r="42"/>
    <circle cx="880" cy="358" r="33"/>
  </g>
  <g fill="#7f8b92" opacity="0.75">
    <path d="M850 520 L910 430 L970 520 Z"/>
    <path d="M930 545 L1005 425 L1088 545 Z"/>
    <path d="M1005 535 L1060 455 L1125 535 Z"/>
  </g>
  <g font-family="serif" font-size="34" fill="#332d26">
    <text x="118" y="445">Ponte delle Campane</text>
    <text x="450" y="475">Brumafonda</text>
    <text x="670" y="170">Santuario</text>
    <text x="860" y="405">Bosco del Velo</text>
    <text x="850" y="590">Creste Grigie</text>
  </g>
  <g fill="#2f2b26">
    <circle cx="250" cy="374" r="10"/>
    <circle cx="552" cy="392" r="10"/>
    <circle cx="756" cy="240" r="10"/>
    <circle cx="930" cy="330" r="10"/>
  </g>
</svg>
